Coordinates
nRows=253
nColumns=2
inDegrees=yes
endheader
time	ankle_angle_r	
2.95613	 19.088468	
2.99174	 19.082472	
3.02736	 19.064105	
3.06298	 19.039321	
3.09859	 19.030950	
3.13421	 19.039640	
3.16982	 19.040644	
3.20544	 19.028801	
3.24106	 19.021945	
3.27667	 19.032230	
3.31229	 19.055471	
3.3479	 19.074038	
3.38352	 19.081293	
3.41914	 19.091901	
3.45475	 19.108294	
3.49037	 19.113684	
3.52598	 19.104182	
3.5616	 19.095772	
3.59722	 19.102877	
3.63283	 19.116248	
3.66845	 19.114078	
3.70406	 19.104003	
3.73968	 19.113373	
3.7753	 19.138274	
3.81091	 19.150169	
3.84653	 19.136741	
3.88214	 19.112157	
3.91776	 19.099885	
3.95338	 19.102810	
3.98899	 19.101904	
4.02461	 19.093078	
4.06022	 19.093550	
4.09584	 19.109390	
4.13146	 19.123834	
4.16707	 19.120292	
4.20269	 19.108175	
4.2383	 19.108040	
4.27392	 19.112343	
4.30954	 19.100046	
4.34515	 19.078834	
4.38077	 19.070433	
4.41638	 19.077385	
4.452	 19.084024	
4.48762	 19.074843	
4.52323	 19.057470	
4.55885	 19.055736	
4.59446	 19.070002	
4.63008	 19.076400	
4.6657	 19.065007	
4.70131	 19.051157	
4.73693	 19.052607	
4.77254	 19.063231	
4.80816	 19.060614	
4.84378	 19.046408	
4.87939	 19.046078	
4.91501	 19.064759	
4.95062	 19.080365	
4.98624	 19.076497	
5.02186	 19.063501	
5.05747	 19.063306	
5.09309	 19.072654	
5.1287	 19.067032	
5.16432	 19.046050	
5.19994	 19.035698	
5.23555	 19.047966	
5.27117	 19.065550	
5.30678	 19.064919	
5.3424	 19.051086	
5.37802	 19.049446	
5.41363	 19.058842	
5.44925	 19.056348	
5.48486	 19.040828	
5.52048	 19.031315	
5.5561	 19.040862	
5.59171	 19.064473	
5.62733	 19.082405	
5.66294	 19.088149	
5.69856	 19.097904	
5.73418	 19.116602	
5.76979	 19.127993	
5.80541	 19.121220	
5.84102	 19.104706	
5.87664	 19.097274	
5.91226	 19.102321	
5.94787	 19.103722	
5.98349	 19.101150	
6.0191	 19.111519	
6.05472	 19.131594	
6.09034	 19.139684	
6.12595	 19.125116	
6.16157	 19.100809	
6.19718	 19.091964	
6.2328	 19.101651	
6.26842	 19.105998	
6.30403	 19.096087	
6.33965	 19.088484	
6.37526	 19.095829	
6.41088	 19.111082	
6.4465	 19.115733	
6.48211	 19.108017	
6.51773	 19.107125	
6.55334	 19.112115	
6.58896	 19.100731	
6.62458	 19.073519	
6.66019	 19.055161	
6.69581	 19.062777	
6.73142	 19.083849	
6.76704	 19.087701	
6.80266	 19.074857	
6.83827	 19.076393	
6.87389	 19.094627	
6.9095	 19.101417	
6.94512	 19.082680	
6.98074	 19.053339	
7.01635	 19.042555	
7.05197	 19.055612	
7.08758	 19.066792	
7.1232	 19.068333	
7.15882	 19.077317	
7.19443	 19.095397	
7.23005	 19.108202	
7.26566	 19.107108	
7.30128	 19.099712	
7.3369	 19.104003	
7.37251	 19.116102	
7.40813	 19.111361	
7.44374	 19.090122	
7.47936	 19.079342	
7.51498	 19.093782	
7.55059	 19.118647	
7.58621	 19.127318	
7.62182	 19.120203	
7.65744	 19.122056	
7.69306	 19.133577	
7.72867	 19.132839	
7.76429	 19.115234	
7.7999	 19.095924	
7.83552	 19.092370	
7.87114	 19.103950	
7.90675	 19.107953	
7.94237	 19.100246	
7.97798	 19.103441	
8.0136	 19.120039	
8.04922	 19.126947	
8.08483	 19.109850	
8.12045	 19.082272	
8.15606	 19.072893	
8.19168	 19.082088	
8.2273	 19.081188	
8.26291	 19.066777	
8.29853	 19.062209	
8.33414	 19.074115	
8.36976	 19.084821	
8.40538	 19.074535	
8.44099	 19.052520	
8.47661	 19.050776	
8.51222	 19.069115	
8.54784	 19.077069	
8.58346	 19.068919	
8.61907	 19.065052	
8.65469	 19.078744	
8.6903	 19.099892	
8.72592	 19.105176	
8.76154	 19.097265	
8.79715	 19.104940	
8.83277	 19.130013	
8.86838	 19.143220	
8.904	 19.129596	
8.93962	 19.104931	
8.97523	 19.095210	
9.01085	 19.102122	
9.04646	 19.103693	
9.08208	 19.098063	
9.1177	 19.104156	
9.15331	 19.122549	
9.18893	 19.134045	
9.22454	 19.123915	
9.26016	 19.103847	
9.29578	 19.102676	
9.33139	 19.116840	
9.36701	 19.114696	
9.40262	 19.095652	
9.43824	 19.087202	
9.47386	 19.098739	
9.50947	 19.113194	
9.54509	 19.111417	
9.5807	 19.098695	
9.61632	 19.094645	
9.65194	 19.096289	
9.68755	 19.085893	
9.72317	 19.065068	
9.75878	 19.052832	
9.7944	 19.062699	
9.83002	 19.081571	
9.86563	 19.081106	
9.90125	 19.065185	
9.93686	 19.064675	
9.97248	 19.082919	
10.0081	 19.095291	
10.0437	 19.087839	
10.0793	 19.074450	
10.1149	 19.081489	
10.1506	 19.105029	
10.1862	 19.112246	
10.2218	 19.100118	
10.2574	 19.097518	
10.293	 19.112903	
10.3286	 19.126687	
10.3643	 19.122386	
10.3999	 19.109642	
10.4355	 19.110754	
10.4711	 19.120910	
10.5067	 19.115090	
10.5423	 19.092242	
10.578	 19.076634	
10.6136	 19.085407	
10.6492	 19.106723	
10.6848	 19.114185	
10.7204	 19.108993	
10.756	 19.114897	
10.7916	 19.130855	
10.8273	 19.133819	
10.8629	 19.116496	
10.8985	 19.094997	
10.9341	 19.089735	
10.9697	 19.098348	
11.0053	 19.097251	
11.041	 19.083482	
11.0766	 19.080263	
11.1122	 19.094329	
11.1478	 19.105316	
11.1834	 19.094424	
11.219	 19.067741	
11.2547	 19.048482	
11.2903	 19.043675	
11.3259	 19.039032	
11.3615	 19.030911	
11.3971	 19.034090	
11.4327	 19.056595	
11.4684	 19.084185	
11.504	 19.094480	
11.5396	 19.089485	
11.5752	 19.093843	
11.6108	 19.108167	
11.6464	 19.107201	
11.682	 19.089666	
11.7177	 19.081718	
11.7533	 19.097187	
11.7889	 19.119223	
11.8245	 19.122137	
11.8601	 19.113301	
11.8957	 19.129199	
11.9314	 19.180147	
